{"title":"[wakaRiP]Kami nomi zo Shiru Sekai II [1-12] VOSTFR HD","uid":10493584,"size":4065838654,"categoryP":"video","categoryS":"hd___tv_shows","magnet":"?xt=urn:btih:5384534ace544c1b2a331e227bb3f47af015a120&amp;dn=%5BwakaRiP%5DKami+nomi+zo+Shiru+Sekai+II+%5B1-12%5D+VOSTFR+HD&amp;tr=udp%3A%2F%2Ftracker.openbittorrent.com%3A80&amp;tr=udp%3A%2F%2Fopen.demonii.com%3A1337&amp;tr=udp%3A%2F%2Ftracker.coppersurfer.tk%3A6969&amp;tr=udp%3A%2F%2Fexodus.desync.com%3A6969","seeders":2,"leechers":3,"uploader":"wakaRIP","files":-1,"time":1404576985,"description":"&quot;There is no hope, there is only determination.&quot;\n\n20%...\n\nNOTE : The seed won't begin immediately\n\nGeneral\nFormat                                   : MPEG-4\nFormat profile                           : Base Media\nCodec ID                                 : isom\nFile size                                : 323 MiB\nDuration                                 : 23mn 47s\nOverall bit rate                         : 1 896 Kbps\nWriting application                      : Lavf54.2.100\n\nVideo\nID                                       : 1\nFormat                                   : AVC\nFormat/Info                              : Advanced Video Codec\nFormat profile                           : &lt;a class=&quot;__cf_email__&quot; href=&quot;/cdn-cgi/l/email-protection&quot; data-cfemail=&quot;93dbfaf4fbd3dfa0bda2&quot;&gt;[email&amp;#160;protected]&lt;/a&gt;&lt;script cf-hash='f9e31' type=&quot;text/javascript&quot;&gt;\n/* &lt;![CDATA[ */!function(){try{var t=&quot;currentScript&quot;in document?document.currentScript:function(){for(var t=document.getElementsByTagName(&quot;script&quot;),e=t.length;e--;)if(t[e].getAttribute(&quot;cf-hash&quot;))return t[e]}();if(t&amp;&amp;t.previousSibling){var e,r,n,i,c=t.previousSibling,a=c.getAttribute(&quot;data-cfemail&quot;);if(a){for(e=&quot;&quot;,r=parseInt(a.substr(0,2),16),n=2;a.length-n;n+=2)i=parseInt(a.substr(n,2),16)^r,e+=String.fromCharCode(i);e=document.createTextNode(e),c.parentNode.replaceChild(e,c)}}}catch(u){}}();/* ]]&gt; */&lt;/script&gt;\nFormat settings, CABAC                   : Yes\nFormat settings, ReFrames                : 3 frames\nCodec ID                                 : avc1\nCodec ID/Info                            : Advanced Video Coding\nDuration                                 : 23mn 47s\nBit rate                                 : 1 761 Kbps\nWidth                                    : 1 280 pixels\nHeight                                   : 720 pixels\nDisplay aspect ratio                     : 16:9\nFrame rate mode                          : Variable\nFrame rate                               : 23.976 fps\nMinimum frame rate                       : 23.810 fps\nMaximum frame rate                       : 24.390 fps\nColor space                              : YUV\nChroma subsampling                       : 4:2:0\nBit depth                                : 8 bits\nScan type                                : Progressive\nSource                                   : wakanim.tv\nBits/(Pixel*Frame)                       : 0.080\nStream size                              : 300 MiB (93%)\n\nAudio\nID                                       : 2\nFormat                                   : AAC\nFormat/Info                              : Advanced Audio Codec\nFormat profile                           : LC\nCodec ID                                 : 40\nDuration                                 : 23mn 47s\nBit rate mode                            : Constant\nBit rate                                 : 128 Kbps\nChannel count                            : 2 channels\nChannel positions                        : Front: L R\nSampling rate                            : 48.0 KHz\nCompression mode                         : Lossy\nDelay relative to video                  : 42ms\nStream size                              : 21.7 MiB (7%)","torrent":{"xt":"urn:btih:5384534ace544c1b2a331e227bb3f47af015a120","amp;dn":"%5BwakaRiP%5DKami+nomi+zo+Shiru+Sekai+II+%5B1-12%5D+VOSTFR+HD","amp;tr":["udp%3A%2F%2Ftracker.openbittorrent.com%3A80","udp%3A%2F%2Fopen.demonii.com%3A1337","udp%3A%2F%2Ftracker.coppersurfer.tk%3A6969","udp%3A%2F%2Fexodus.desync.com%3A6969"],"infoHash":"5384534ace544c1b2a331e227bb3f47af015a120","infoHashBuffer":{"type":"Buffer","data":[83,132,83,74,206,84,76,27,42,51,30,34,123,179,244,122,240,21,161,32]},"announce":[],"urlList":[]}}